<svg xmlns="http://www.w3.org/2000/svg" xmlns:xlink="http://www.w3.org/1999/xlink" width="100" height="100" viewBox="0 0 100 100"><g><g transform="translate(50 50) scale(0.69 0.69) rotate(0) translate(-50 -50)" style="fill:#78FF34;"><svg fill="#78FF34" xmlns="http://www.w3.org/2000/svg" xmlns:xlink="http://www.w3.org/1999/xlink" version="1.1" x="0px" y="0px" viewBox="0 0 96 96" enable-background="new 0 0 96 96" xml:space="preserve"><g><path d="M88.666,45.731l-0.426-0.444C76.563,33.313,60.894,26.276,46.452,26.568c-13.03,0.265-28.019,7.607-39.117,19.162   c-1.115,1.161-1.114,3.353-0.001,4.508C18.57,61.968,33.762,69.143,47.967,69.434l0.132,0.001l0.335-0.003   c0.07,0,0.144,0.001,0.225,0.007c0.023,0.002,0.048,0.003,0.072,0.003c13.218,0,28.519-7.356,39.933-19.2   C89.779,49.084,89.78,46.892,88.666,45.731z M86.504,48.16c-11.068,11.482-25.88,18.54-38.473,18.274   c-13.43-0.273-27.834-7.104-38.493-18.222c-0.048-0.096-0.048-0.359-0.04-0.404c10.568-11.002,24.75-17.992,37.014-18.24   c0.278-0.006,0.553-0.009,0.831-0.009c13.382,0,27.866,6.662,38.742,17.817l0.377,0.381C86.511,47.853,86.512,48.115,86.504,48.16z   "></path><path d="M48.001,34.908c-7.219,0-13.092,5.873-13.092,13.092c0,7.22,5.873,13.093,13.092,13.093c7.22,0,13.093-5.873,13.093-13.093   C61.094,40.781,55.221,34.908,48.001,34.908z M48.001,58.093c-5.564,0-10.092-4.527-10.092-10.093   c0-5.564,4.527-10.092,10.092-10.092c5.565,0,10.093,4.527,10.093,10.092C58.094,53.565,53.566,58.093,48.001,58.093z"></path></g></svg></g></g></svg>