<svg fill="#78FF34" xmlns="http://www.w3.org/2000/svg" data-name="Layer 1" viewBox="0 0 100 100" x="0px" y="0px"><title>22</title><g data-name="Group"><path data-name="Compound Path" d="M88.5,22,74.3,10.9a4,4,0,0,0-2.5-.9H24A14,14,0,0,0,10,24V76A14,14,0,0,0,24,90H76A14,14,0,0,0,90,76V25.2A4,4,0,0,0,88.5,22Zm-55-4h29V35.5h-29ZM82,76a6,6,0,0,1-6,6H24a6,6,0,0,1-6-6V24a6,6,0,0,1,6-6h1.5V39.5a4,4,0,0,0,4,4h37a4,4,0,0,0,4-4V18L82,27.1Z"></path><path data-name="Compound Path" d="M48,48A14,14,0,1,0,62,62,14,14,0,0,0,48,48Zm0,20a6,6,0,1,1,6-6A6,6,0,0,1,48,68Z"></path></g></svg>