<svg fill="#7400B3" xmlns="http://www.w3.org/2000/svg" xmlns:xlink="http://www.w3.org/1999/xlink" version="1.1" x="0px" y="0px" viewBox="0 0 100 100" enable-background="new 0 0 100 100" xml:space="preserve"><path d="M71.8,47.538l-19.339,0.001L52.46,28.198c0-0.657-0.256-1.275-0.722-1.739c-0.463-0.464-1.081-0.72-1.739-0.72  c-1.356,0.001-2.46,1.104-2.46,2.461v19.339L28.194,47.54c-0.655,0-1.271,0.256-1.735,0.72c-0.465,0.465-0.721,1.083-0.72,1.739  c-0.001,0.657,0.255,1.274,0.72,1.739c0.465,0.466,1.082,0.722,1.74,0.722l19.34,0.001L47.538,71.8  c0.002,1.354,1.105,2.459,2.461,2.461H50c0.657,0,1.275-0.255,1.74-0.72s0.721-1.083,0.719-1.74l0.002-19.34h19.34  c0.66-0.002,1.277-0.258,1.741-0.721c0.463-0.465,0.718-1.081,0.72-1.742C74.26,48.642,73.154,47.538,71.8,47.538z"></path><path d="M81.835,18.166C73.346,9.676,62.039,5,50,5S26.655,9.675,18.165,18.166c-17.554,17.554-17.554,46.116,0,63.669  C26.655,90.324,37.961,95,50,95s23.346-4.676,31.835-13.165C99.389,64.281,99.389,35.719,81.835,18.166z M78.355,78.355  C70.793,85.916,60.725,90.08,50,90.08c-10.724,0-20.794-4.164-28.355-11.725c-15.634-15.637-15.634-41.077,0-56.711  c7.562-7.561,17.631-11.725,28.354-11.725c10.724,0,20.794,4.165,28.356,11.726C93.988,37.28,93.988,62.721,78.355,78.355z"></path></svg>