<svg xmlns="http://www.w3.org/2000/svg" xmlns:xlink="http://www.w3.org/1999/xlink" width="100" height="100" viewBox="0 0 100 100"><g><g transform="translate(50 50) scale(0.69 0.69) rotate(0) translate(-50 -50)" style="fill:#78FF34;"><svg fill="#78FF34" xmlns="http://www.w3.org/2000/svg" xmlns:xlink="http://www.w3.org/1999/xlink" version="1.1" x="0px" y="0px" viewBox="0 0 80 80" style="enable-background:new 0 0 80 80;" xml:space="preserve"><style type="text/css">
	.st0{fill:#78FF34;}
</style><path class="st0" d="M70.6,33.9H50.3c-2.3,0-4.2-1.9-4.2-4.2V9.4c0-2.3-1.9-4.2-4.2-4.2h-3.8c-2.3,0-4.2,1.9-4.2,4.2v20.3  c0,2.3-1.9,4.2-4.2,4.2H9.4c-2.3,0-4.2,1.9-4.2,4.2v3.8c0,2.3,1.9,4.2,4.2,4.2h20.3c2.3,0,4.2,1.9,4.2,4.2v20.3  c0,2.3,1.9,4.2,4.2,4.2h3.8c2.3,0,4.2-1.9,4.2-4.2V50.3c0-2.3,1.9-4.2,4.2-4.2h20.3c2.3,0,4.2-1.9,4.2-4.2v-3.8  C74.8,35.8,72.9,33.9,70.6,33.9z"></path></svg></g></g></svg>