<svg xmlns:dc="http://purl.org/dc/elements/1.1/" xmlns:sodipodi="http://sodipodi.sourceforge.net/DTD/sodipodi-0.dtd" xmlns:inkscape="http://www.inkscape.org/namespaces/inkscape" xmlns:rdf="http://www.w3.org/1999/02/22-rdf-syntax-ns#" xmlns:svg="http://www.w3.org/2000/svg" xmlns:cc="http://creativecommons.org/ns#" xmlns:v="http://schemas.microsoft.com/visio/2003/SVGExtensions/" xmlns="http://www.w3.org/2000/svg" xmlns:xlink="http://www.w3.org/1999/xlink" version="1.1" x="0px" y="0px" viewBox="0 0 100 125" enable-background="new 0 0 100 100" xml:space="preserve"><v:documentProperties v:viewMarkup="false" v:langID="1033"><v:userDefs><v:ud v:nameU="msvNoAutoConnect" v:val="VT0(0):26"/></v:userDefs></v:documentProperties><path d="M85.115,33.957c-0.858-0.502-2.151-0.534-2.714-1.438c-0.813-1.309-1.239-2.857-2.026-4.2  c-1.477-2.52-3.305-4.912-5.651-6.683c-2.824-2.131-5.903-2.676-9.373-2.623c-2.03,0.031-4.062,0.092-6.091,0.129  c-0.947,0.018-2.036,0.082-2.957-0.172c-0.626-0.172-1.167-0.555-1.753-0.823c-5.821-2.674-12.049-1.943-17.13,1.784  c-1.983,1.44-4.608,1.187-6.101,1.794c-1.625,0.661-3.363,1.01-4.909,1.868c-1.751,0.971-3.2,2.748-4.005,4.565  c-0.8,1.806-0.68,3.936-2.292,5.286c-2.492,2.087-5.849,2.365-7.835,5.174c-0.919,1.3-1.621,3.223-1.025,4.8  c0.448,1.188,2.076,2.06,1.61,3.505c-0.296,0.919-1.033,1.599-1.264,2.551c-0.216,0.887-0.296,1.803-0.296,2.715  c0.001,1.611,0.22,3.199,0.941,4.657c0.724,1.464,1.896,2.715,3.413,3.361c1.548,0.661,3.263-0.535,4.738,0.121  c0.848,0.377,1.125,1.687,1.903,2.267c0.795,0.594,1.73,1.002,2.665,1.319c2.117,0.72,4.643,1.141,6.837,0.521  c3.039-0.854,2.864-4.194,3.263-6.796c0.285-1.857,6.994-3.039,9.381-3.238c0.551,1.102-7.1,2.199-7.278,3.265  c-0.505,1.516,2.911,7.903,5.417,9.205c2.18,1.134,5.09,1.207,7.362,0.308c2.559-1.011,4.081-3.889,5.932-5.799  c2.274-2.348,5.438-3.887,8.316-5.412c2.909-1.541,7.468-1.441,5.906-0.456c-3.85,0.987-6.569,2.106-7.683,2.904  c-2.379,1.704-3.871,3.261-5.921,5.438c-2.387,2.52,0.407,4.693,2.701,5.747c1.433,0.659,2.999,1.084,4.38,1.84  c1.535,0.842,2.617,2.359,3.465,3.851c0.887,1.557,1.501,3.235,2.234,4.864c0.471,1.05,1.01,2.334,1.989,3.015  c1.281,0.892,2.588-0.505,3.179-1.565c0.906-1.625,0.601-3.471-0.058-5.122c-0.93-2.332-3.951-6.291-0.461-8.018  c1.745-0.864,4.673-1.671,3.246-4.259c-0.611-1.106,1.877-2.427,2.59-2.883c1.314-0.841,2.579-1.754,3.667-2.885  c1.093-1.138,2.081-2.654,1.751-4.306c-0.299-1.392-1.464-2.271-2.542-3.073c-2.709-2.016-5.117-7.894-3.988-7.627  c1.679,0.396,1.765,3.64,2.768,5.066c0.613,0.871,2.272,1.981,3.444,2.128c0.766-1.34,1.868-2.44,2.742-3.706  c0.976-1.414,1.272-2.788,1.346-4.479C89.103,38.922,88.344,35.847,85.115,33.957z"/><text x="0" y="115" fill="#000000" font-size="5px" font-weight="bold" font-family="'Helvetica Neue', Helvetica, Arial-Unicode, Arial, Sans-serif">Created by Vasil Enchev</text><text x="0" y="120" fill="#000000" font-size="5px" font-weight="bold" font-family="'Helvetica Neue', Helvetica, Arial-Unicode, Arial, Sans-serif">from the Noun Project</text></svg>